<?xml version="1.0" standalone="no"?>
<!DOCTYPE svg PUBLIC "-//W3C//DTD SVG 20010904//EN"
 "http://www.w3.org/TR/2001/REC-SVG-20010904/DTD/svg10.dtd">
<svg version="1.0" xmlns="http://www.w3.org/2000/svg"
 width="256.000000pt" height="256.000000pt" viewBox="0 0 256.000000 256.000000"
 preserveAspectRatio="xMidYMid meet">
<metadata>
Created by potrace 1.11, written by Peter Selinger 2001-2013
</metadata>
<g transform="translate(0.000000,256.000000) scale(0.100000,-0.100000)"
fill="#000000" stroke="none">
<path d="M1109 2549 c-544 -80 -966 -475 -1084 -1014 -23 -103 -28 -364 -9
-456 7 -35 15 -75 17 -89 10 -53 68 -212 103 -282 104 -208 260 -379 459 -507
l80 -51 242 242 c134 134 243 246 243 249 0 4 -115 122 -256 262 -215 215
-256 261 -261 291 -7 45 30 86 79 86 29 0 59 -27 295 -262 l263 -262 263 262
c235 234 267 262 296 262 43 0 81 -38 81 -82 0 -29 -27 -59 -262 -295 l-263
-263 245 -245 245 -245 80 51 c296 189 492 473 567 819 26 120 32 349 12 465
-82 469 -400 846 -844 1003 -76 26 -109 35 -225 57 -51 10 -307 13 -366 4z
m374 -103 c189 -64 330 -203 402 -396 25 -67 29 -89 29 -200 1 -144 -19 -225
-81 -332 -49 -86 -163 -195 -251 -241 -329 -173 -739 -31 -886 306 -71 161
-69 363 4 523 77 171 238 306 422 354 107 28 256 22 361 -14z"/>
<path d="M1150 2301 c-89 -29 -141 -60 -206 -125 -99 -99 -144 -212 -139 -349
4 -97 25 -169 73 -242 163 -252 499 -297 725 -98 110 96 166 241 153 395 -16
187 -132 340 -311 408 -82 30 -218 36 -295 11z"/>
<path d="M1056 301 c-120 -120 -214 -221 -210 -223 91 -53 455 -94 594 -68 25
5 65 11 89 15 25 4 80 18 122 31 l77 24 -220 220 c-121 121 -223 220 -227 220
-3 0 -105 -98 -225 -219z"/>
</g>
</svg>
